<svg id="Layer_3" data-name="Layer 3" xmlns="http://www.w3.org/2000/svg" viewBox="0 0 675.92 687.3"><defs><style>.cls-1{fill:#fff;}.cls-2{fill:#f4d224;}</style></defs><title>logo</title><path class="cls-1" d="M546.5,278.13H294.76V612.21l95.5-170.07,6.33-11.27,12.49,3.33,33.2,8.83V405.89h96.61c41.25,0,69.29,14.88,77.4,44.14l66.29-140,.89-1.83C649.38,288.9,604.24,278.13,546.5,278.13Z" transform="translate(-202.04 -196.35)"/><polygon class="cls-2" points="675.92 155.96 648.33 142.86 489.48 478.32 475.71 507.47 475.71 507.52 312.14 463.83 271.22 452.89 261.67 450.33 260.23 452.89 240.24 488.53 169.73 614.12 128.64 687.3 0 615.07 0.56 614.12 23.65 572.98 92.72 449.95 202.76 253.96 240.24 263.95 406.75 308.42 414.13 292.82 495.58 120.76 515.02 79.73 513.41 79.01 489.03 67.46 527.18 49.91 529.67 48.75 562.21 33.76 570.26 30.04 597.69 17.38 635.33 0 645.77 40.14 653.38 69.35 655.6 77.95 663.26 107.32 663.93 109.93 675.92 155.96"/><polygon class="cls-1" points="500.36 494.2 484.56 527.14 471.43 523.62 326.08 484.81 412.14 614.12 582.48 614.12 500.36 494.2"/></svg>