<svg id="Layer_1" data-name="Layer 1" xmlns="http://www.w3.org/2000/svg" viewBox="0 0 965.04 123.79"><defs><style>.cls-1{fill:#000;}.cls-2{fill:#f4d224;}</style></defs><title>textlogo</title><path class="cls-1" d="M57.48,491.58H98.57c24.24,0,39.86,12.47,39.86,33.7v.27c0,22.6-17.4,34.52-41.23,34.52H84.05v27.39H57.48Zm39.17,47.67c9.45,0,15.21-4.93,15.21-12.47v-.27c0-8.22-5.76-12.6-15.34-12.6H84.05v25.34Z" transform="translate(-57.48 -476.85)"/><path class="cls-1" d="M149.66,491.58h77.11v22.6H176V528.7h46v21H176v15.2h51.5v22.6H149.66Z" transform="translate(-57.48 -476.85)"/><path class="cls-1" d="M241,491.58h26.57v72.59H314v23.29H241Z" transform="translate(-57.48 -476.85)"/><path class="cls-1" d="M358.52,490.9h25.62L425,587.46H396.46l-7-17.12h-37l-6.85,17.12H317.71Zm23.29,58.76L371.12,522.4,360.3,549.66Z" transform="translate(-57.48 -476.85)"/><path class="cls-1" d="M426.32,572.94l17.12-16.16c4.66,5.61,9,8.9,14.93,8.9,6.71,0,11-4.52,11-13.42V491.58h26.43v60.81c0,12.06-3,20.55-9.45,27S471,589.1,460,589.1C443.3,589.1,433,582.12,426.32,572.94Z" transform="translate(-57.48 -476.85)"/><path class="cls-1" d="M604.53,580.05l-4.16,7.41h7.29ZM566.84,490.9H541.23l-40.81,96.56h27.94l6.85-17.12h37l7,17.12h17.76l.72-1.3,5.4-9.61ZM543,549.66l10.82-27.26,10.69,27.26Z" transform="translate(-57.48 -476.85)"/><path class="cls-1" d="M747,490.9h25.61l40.82,96.56H784.89l-7-17.12h-37l-6.85,17.12H706.13Zm23.28,58.76L759.55,522.4l-10.82,27.26Z" transform="translate(-57.48 -476.85)"/><path class="cls-1" d="M822.69,491.58h24.79l39.45,50.68V491.58h26.29v95.88H889.94l-41-52.6v52.6h-26.3Z" transform="translate(-57.48 -476.85)"/><path class="cls-1" d="M930.2,491.58h26.58v38.9l33-38.9h31.51L985,532.81l37.53,54.65H990.61L966.5,551.85l-9.72,10.82v24.79H930.2Z" transform="translate(-57.48 -476.85)"/><path class="cls-1" d="M662.31,491.58H617v60.17l17.2-30.63,1.14-2,2.25.6,6,1.59v-6.69h17.4c7.43,0,12.48,2.68,13.94,7.95l11.94-25.22L687,497C680.84,493.52,672.71,491.58,662.31,491.58Z" transform="translate(-57.48 -476.85)"/><polygon class="cls-2" points="664.53 28.09 659.56 25.73 630.95 86.15 628.47 91.4 628.47 91.41 599.01 83.54 591.64 81.57 589.92 81.11 589.66 81.57 586.06 87.99 573.36 110.61 565.96 123.79 542.79 110.78 542.89 110.61 547.05 103.2 559.49 81.04 579.31 45.74 586.06 47.54 616.05 55.55 617.38 52.74 632.05 21.75 635.55 14.36 635.26 14.23 630.87 12.15 637.74 8.99 638.19 8.78 644.05 6.08 645.5 5.41 650.44 3.13 657.22 0 659.1 7.23 660.47 12.49 660.87 14.04 662.25 19.33 662.37 19.8 664.53 28.09"/><polygon class="cls-1" points="632.91 89.01 630.06 94.94 627.7 94.31 601.52 87.32 617.02 110.61 647.7 110.61 632.91 89.01"/></svg>